<?xml version="1.0" encoding="utf-8"?>
<!-- Generator: Adobe Illustrator 27.2.0, SVG Export Plug-In . SVG Version: 6.00 Build 0)  -->
<svg version="1.1" id="Layer_1" xmlns:serif="http://www.serif.com/"
	 xmlns="http://www.w3.org/2000/svg" xmlns:xlink="http://www.w3.org/1999/xlink" x="0px" y="0px" viewBox="0 0 202.4 185.9"
	 style="enable-background:new 0 0 202.4 185.9;" xml:space="preserve">
<style type="text/css">
	.st0{fill:none;stroke:#000000;stroke-width:4;stroke-miterlimit:10;}
</style>
<g>
	<path class="st0" d="M102.8,182.1c-0.7,0-0.7,0-1.4,0l0,0c-0.7,0-0.7,0-0.7,0c-11.2,0-18.3-5.6-26-9.8c-4.9-3.5-9.1-6.3-14.8-7.7
		c-2.8-0.7-5.6-0.7-7.7-0.7c-4.2,0-7.7,0.7-10.5,1.4c-2.1,0.7-2.8,0.7-4.2,0.7c-0.7,0-2.1-0.7-2.8-2.1c-0.7-1.4-0.7-2.8-0.7-4.2
		c-0.7-3.5-1.4-5.6-2.8-6.3c-17.6-2.8-23.2-6.3-24.6-9.1c0-0.7-0.7-0.7-0.7-1.4c0-0.7,0.7-2.1,2.1-2.1c27.4-4.2,40-33,40-33.7l0,0
		c2.1-3.5,2.1-6.3,0.7-9.1c-2.1-4.2-7.7-6.3-11.9-7.7c-0.7-0.7-2.1-0.7-2.8-0.7c-7.7-2.8-9.1-6.3-8.4-8.4c0.7-2.8,4.2-4.9,7.7-4.9
		c0.7,0,2.1,0,2.1,0.7c3.5,2.1,7,2.8,9.8,2.8c4.2,0,5.6-2.1,5.6-2.1c0-2.1-0.7-4.2-0.7-5.6c0-13.3-0.7-29.5,3.5-38.6
		C66.2,5.8,92.2,3.7,99.2,3.7h3.5h0.7c7.7,0,33.7,2.1,46.4,29.5c4.2,9.1,2.8,25.3,2.1,38.6v0.7c0,2.1-0.7,3.5-0.7,5.6
		c0,0,2.1,2.1,5.6,2.1l0,0c2.8,0,5.6-0.7,9.1-2.8c0.7-0.7,2.1-0.7,2.8-0.7c1.4,0,2.1,0.7,2.8,0.7l0,0c2.8,0.7,4.2,2.8,4.2,4.9
		s-1.4,4.9-8.4,7.7c-0.7,0.7-2.1,0.7-2.8,0.7c-4.2,1.4-9.8,2.8-11.9,7.7c-0.7,2.1-0.7,5.6,0.7,9.1l0,0c0.7,1.4,12.6,29.5,40,33.7
		c0.7,0,2.1,0.7,2.1,2.1c0,0.7,0,0.7-0.7,1.4c-0.7,2.8-5.6,6.3-23.2,9.1c-1.4,0.7-2.1,2.1-2.8,6.3c-0.7,1.4-0.7,2.8-0.7,4.2
		c-0.7,1.4-1.4,2.1-2.8,2.1h-0.7c-0.7,0-2.1,0-4.2-0.7c-2.8-0.7-6.3-1.4-10.5-1.4c-2.8,0-5.6,0-7.7,0.7c-5.6,0.7-9.8,4.2-14.8,7.7
		C121.7,176.5,114,182.1,102.8,182.1z"/>
</g>
</svg>
