<?xml version="1.0" encoding="utf-8"?>
<!-- Generator: Adobe Illustrator 27.2.0, SVG Export Plug-In . SVG Version: 6.00 Build 0)  -->
<svg version="1.1" id="Layer_1" xmlns:serif="http://www.serif.com/"
	 xmlns="http://www.w3.org/2000/svg" xmlns:xlink="http://www.w3.org/1999/xlink" x="0px" y="0px" viewBox="0 0 50 50"
	 style="enable-background:new 0 0 50 50;" xml:space="preserve">
<style type="text/css">
	.st0{fill:none;stroke:#000000;stroke-width:2;stroke-miterlimit:10;}
</style>
<g>
	<path class="st0" d="M25.3,45.2c-0.1,0-0.2,0-0.3,0h0c-0.1,0-0.1,0-0.2,0c-2.5,0-4.2-1.2-5.8-2.3c-1.1-0.8-2.1-1.5-3.3-1.7
		c-0.6-0.1-1.2-0.1-1.8-0.1c-1,0-1.8,0.2-2.4,0.3c-0.4,0.1-0.7,0.1-0.9,0.1c-0.2,0-0.5-0.1-0.6-0.4c-0.1-0.3-0.2-0.7-0.2-1
		c-0.2-0.8-0.3-1.3-0.7-1.4c-4-0.6-5.2-1.5-5.5-2.1c0-0.1-0.1-0.2-0.1-0.3c0-0.2,0.2-0.4,0.4-0.5c6.2-1,9-7.4,9.1-7.6c0,0,0,0,0,0
		c0.4-0.8,0.5-1.4,0.2-2c-0.4-1-1.8-1.4-2.7-1.7c-0.2-0.1-0.4-0.1-0.6-0.2c-1.8-0.7-2-1.5-1.9-1.9c0.1-0.6,1-1.1,1.7-1.1
		c0.2,0,0.4,0,0.5,0.1c0.8,0.4,1.6,0.6,2.2,0.6c0.9,0,1.3-0.4,1.3-0.4c0-0.4-0.1-0.9-0.1-1.3c-0.2-2.9-0.4-6.6,0.5-8.7
		c2.8-6.2,8.7-6.7,10.4-6.7c0,0,0.8,0,0.8,0l0.1,0c1.7,0,7.7,0.5,10.5,6.7c0.9,2.1,0.7,5.7,0.5,8.7l0,0.1c0,0.4-0.1,0.8-0.1,1.2
		c0,0,0.4,0.4,1.2,0.4h0c0.6,0,1.3-0.2,2.1-0.6c0.2-0.1,0.5-0.1,0.6-0.1c0.3,0,0.5,0.1,0.7,0.1l0,0c0.6,0.2,1,0.7,1,1.1
		c0,0.4-0.3,1.1-1.9,1.7c-0.2,0.1-0.4,0.1-0.6,0.2c-0.9,0.3-2.3,0.7-2.7,1.7c-0.2,0.5-0.2,1.2,0.2,2c0,0,0,0,0,0
		c0.1,0.3,2.9,6.6,9.1,7.6c0.2,0,0.4,0.2,0.4,0.5c0,0.1,0,0.2-0.1,0.3C46.2,37.2,45,38,41,38.6c-0.3,0.1-0.5,0.5-0.7,1.4
		c-0.1,0.3-0.1,0.7-0.2,1c-0.1,0.3-0.3,0.4-0.6,0.4h-0.1c-0.2,0-0.5,0-0.9-0.1c-0.7-0.1-1.5-0.3-2.4-0.3c-0.6,0-1.2,0-1.8,0.1
		c-1.2,0.2-2.2,0.9-3.3,1.7C29.5,44,27.8,45.2,25.3,45.2z"/>
	<path class="st0" d="M25.4,4.4L25.4,4.4c0,0-0.1,0-0.1,0c0,0-0.7,0-0.8,0c-1.8,0-8,0.5-10.8,7c-1,2.2-0.7,5.9-0.6,8.9
		c0,0.4,0,0.7,0.1,1.1c-0.1,0.1-0.4,0.2-0.9,0.2c-0.6,0-1.3-0.2-2-0.5c-0.2-0.1-0.4-0.1-0.7-0.1c-0.9,0-2,0.6-2.1,1.5
		c-0.1,0.6,0.2,1.6,2.2,2.4c0.2,0.1,0.4,0.1,0.6,0.2c0.8,0.3,2.1,0.7,2.5,1.5c0.2,0.4,0.1,1-0.2,1.6c0,0,0,0,0,0
		c-0.1,0.3-2.8,6.4-8.8,7.4C3.3,35.4,3,35.9,3,36.3c0,0.1,0,0.3,0.1,0.4c0.4,1,2.3,1.8,5.8,2.3c0.1,0.2,0.2,0.7,0.3,1
		c0.1,0.3,0.1,0.7,0.3,1c0.1,0.4,0.4,0.8,1.1,0.8c0.3,0,0.6-0.1,1-0.1c0.6-0.1,1.4-0.3,2.3-0.3c0.5,0,1.1,0,1.7,0.1
		c1.1,0.2,2.1,0.9,3.1,1.6c1.6,1.1,3.3,2.4,6,2.4c0.1,0,0.1,0,0.2,0c0.1,0,0.2,0,0.3,0c2.7,0,4.5-1.3,6-2.4c1.1-0.8,2-1.4,3.1-1.6
		c0.6-0.1,1.1-0.1,1.7-0.1c0.9,0,1.7,0.1,2.3,0.2c0.4,0.1,0.7,0.1,1,0.1l0,0h0c0.5,0,0.9-0.3,1-0.8c0.1-0.4,0.2-0.7,0.3-1
		c0.1-0.3,0.2-0.9,0.3-1c3.4-0.5,5.3-1.3,5.8-2.3c0.1-0.1,0.1-0.3,0.1-0.4c0-0.5-0.3-0.9-0.8-0.9c-6-1-8.7-7.1-8.8-7.4c0,0,0,0,0,0
		c-0.3-0.6-0.4-1.2-0.2-1.6c0.3-0.8,1.6-1.2,2.5-1.5c0.2-0.1,0.5-0.1,0.6-0.2c1.5-0.6,2.2-1.3,2.2-2.1c0-0.7-0.5-1.2-1.3-1.5l0,0
		c-0.3-0.1-0.6-0.2-0.9-0.2c-0.2,0-0.5,0-0.8,0.2c-0.7,0.3-1.3,0.5-1.9,0.5c-0.4,0-0.6-0.1-0.7-0.2c0-0.3,0-0.6,0.1-0.9l0-0.1
		c0.2-3,0.4-6.7-0.6-8.9C33.4,4.9,27.2,4.4,25.4,4.4z M25.4,5.3c1.7,0,7.4,0.4,10,6.5c0.9,2,0.7,5.6,0.5,8.5c0,0.5-0.1,0.9-0.1,1.3
		l0,0.2l0.1,0.1c0,0.1,0.5,0.5,1.5,0.6l0,0l0,0c0.7,0,1.4-0.2,2.3-0.6c0.1-0.1,0.3-0.1,0.5-0.1c0.2,0,0.4,0,0.6,0.1l0,0
		c0.4,0.2,0.7,0.4,0.7,0.7c0,0.1-0.1,0.7-1.6,1.3c-0.2,0.1-0.3,0.1-0.6,0.2c-1,0.3-2.5,0.8-3,2c-0.3,0.7-0.2,1.5,0.2,2.4
		c0.2,0.4,3,6.9,9.5,7.9c0,0,0,0.1,0,0.1c-0.1,0.3-0.8,1.1-5.1,1.8c-0.7,0.1-0.8,0.9-1,1.7c-0.1,0.3-0.1,0.6-0.2,1
		c0,0.1,0,0.1-0.1,0.1h-0.1c-0.2,0-0.5,0-0.8-0.1c-0.6-0.1-1.4-0.3-2.5-0.3c-0.6,0-1.2,0.1-1.8,0.2c-1.3,0.2-2.4,1-3.5,1.8
		c-1.5,1.1-3.1,2.2-5.5,2.2c-0.1,0-0.2,0-0.3,0l0,0l0,0c-0.1,0-0.1,0-0.2,0c-2.4,0-4-1.1-5.5-2.2c-1.1-0.8-2.2-1.6-3.5-1.8
		c-0.6-0.1-1.2-0.2-1.8-0.2c-1.1,0-1.9,0.2-2.5,0.3C11,41,10.7,41,10.5,41c-0.2,0-0.2,0-0.2-0.1c-0.1-0.3-0.2-0.7-0.2-1
		c-0.2-0.9-0.4-1.6-1-1.7c-4.3-0.7-5-1.6-5.1-1.8c0,0,0-0.1,0-0.1c6.4-1.1,9.3-7.5,9.5-7.9c0.4-0.9,0.5-1.7,0.2-2.4
		c-0.5-1.2-2-1.7-3-2c-0.2-0.1-0.4-0.1-0.6-0.2c-1.3-0.5-1.7-1-1.6-1.3c0.1-0.4,0.7-0.7,1.2-0.7c0.1,0,0.2,0,0.3,0.1
		c0.9,0.4,1.7,0.6,2.4,0.6c1.1,0,1.6-0.5,1.7-0.6l0.1-0.1l0-0.2c0-0.4-0.1-0.9-0.1-1.3c-0.2-2.9-0.4-6.5,0.5-8.5
		c2.7-6,8.3-6.5,10-6.5C24.6,5.3,25.3,5.3,25.4,5.3C25.4,5.3,25.4,5.3,25.4,5.3z"/>
</g>
</svg>
