<?xml version="1.0" encoding="utf-8"?>
<!-- Generator: Adobe Illustrator 27.2.0, SVG Export Plug-In . SVG Version: 6.00 Build 0)  -->
<svg version="1.1" id="Слой_1" xmlns="http://www.w3.org/2000/svg" xmlns:xlink="http://www.w3.org/1999/xlink" x="0px" y="0px"
	 viewBox="0 0 128 128" style="enable-background:new 0 0 128 128;" xml:space="preserve">
<style type="text/css">
	.st0{stroke:#000000;stroke-width:4;stroke-miterlimit:10;}
</style>
<path class="st0" d="M46,57.5c-5.9,0-10.7,5.4-10.7,12s4.8,12,10.7,12s10.7-5.4,10.7-12S51.9,57.5,46,57.5z M46,77.6
	c-3.8,0-6.9-3.6-6.9-8.1s3.1-8.1,6.9-8.1c3.8,0,6.9,3.6,6.9,8.1S49.8,77.6,46,77.6L46,77.6z"/>
<path class="st0" d="M119.5,59.8c-2.6-10.3-6.3-20.2-11-29.7c-0.2-0.3-0.4-0.6-0.7-0.7c-4.6-2.8-9.5-5.1-14.6-6.9
	c-9.4-3.4-13.9-3.5-14-3.5c-1,0-1.8,0.7-1.9,1.6l-0.6,4c-8.4-0.8-16.8-0.8-25.2,0l-0.6-4c-0.1-1-1-1.7-1.9-1.6c-0.2,0-4.6,0-14,3.5
	c-5.1,1.8-9.9,4.1-14.6,6.9c-0.3,0.2-0.5,0.4-0.7,0.7c-4.7,9.5-8.4,19.5-11,29.7c-5,20-5.9,30-5.9,30.5c0,0.5,0.1,1,0.5,1.4
	C8,96.9,14,101,20.6,103.9c6.1,2.6,12.4,4.3,19,5.2c0.7,0.1,1.5-0.3,1.8-1l5.2-8.9c5.8,1,11.6,1.5,17.5,1.4c5.8,0,11.7-0.5,17.5-1.4
	l5.2,8.9c0.3,0.6,1,1,1.6,1h0.2c6.5-0.9,12.9-2.6,19-5.2c6.6-2.8,12.5-7,17.5-12.2c0.3-0.4,0.5-0.9,0.5-1.4
	C125.4,89.8,124.5,79.8,119.5,59.8z M106,100.3c-5.4,2.2-11,3.8-16.7,4.7l-3.9-6.7c4.5-1.2,13.8-4.3,20.9-10.7
	c0.8-0.7,0.9-1.9,0.1-2.7c-0.7-0.8-1.9-0.9-2.7-0.1l0,0c-8.6,7.9-21.5,10.4-21.7,10.4H82c-5.9,1.1-12,1.7-18,1.7
	c-6,0-12.1-0.5-18-1.6h-0.1c-0.1,0-13-2.5-21.7-10.4c-0.8-0.7-2-0.6-2.7,0.1c-0.7,0.8-0.6,2,0.1,2.7c7.1,6.5,16.4,9.6,20.9,10.7
	l-3.9,6.7c-5.7-0.9-11.3-2.5-16.7-4.7c-5.8-2.6-11-6.2-15.5-10.7c0.3-2.8,1.6-12.5,5.8-29c2.5-9.8,6-19.3,10.5-28.4
	c4.3-2.5,8.8-4.6,13.4-6.3c3.6-1.4,7.3-2.4,11.1-3.1l0.3,2.3c-3.8,1-13.3,3.7-20.8,9.1c-0.9,0.6-1,1.8-0.4,2.7
	c0.6,0.9,1.8,1,2.7,0.4c8.5-6.1,20.1-8.7,21-8.9c4.6-0.6,9.3-0.8,13.9-0.8c4.7,0,9.3,0.3,13.9,0.8c0.9,0.2,12.5,2.7,21,8.9
	c0.9,0.6,2.1,0.4,2.7-0.4c0.6-0.9,0.4-2.1-0.4-2.7c-7.5-5.4-16.9-8.2-20.8-9.1l0.3-2.3c3.8,0.7,7.5,1.7,11.1,3.1
	c4.6,1.7,9.1,3.8,13.4,6.3c4.5,9.1,8,18.6,10.5,28.4c4.1,16.5,5.4,26.2,5.8,29C117.1,94.2,111.8,97.8,106,100.3z"/>
<path class="st0" d="M82,57.5c-5.9,0-10.7,5.4-10.7,12s4.8,12,10.7,12c5.9,0,10.7-5.4,10.7-12S87.9,57.5,82,57.5z M82,77.6
	c-3.8,0-6.9-3.6-6.9-8.1s3.1-8.1,6.9-8.1c3.8,0,6.9,3.6,6.9,8.1S85.8,77.6,82,77.6L82,77.6z"/>
</svg>
