<?xml version="1.0" encoding="utf-8"?>
<!-- Generator: Adobe Illustrator 27.2.0, SVG Export Plug-In . SVG Version: 6.00 Build 0)  -->
<svg version="1.1" id="Слой_1" xmlns="http://www.w3.org/2000/svg" xmlns:xlink="http://www.w3.org/1999/xlink" x="0px" y="0px"
	 viewBox="0 0 243.1 182.9" style="enable-background:new 0 0 243.1 182.9;" xml:space="preserve">
<style type="text/css">
	.st0{stroke:#000000;stroke-width:0.25;stroke-miterlimit:10;}
</style>
<path class="st0" d="M86.5,77.1c-11.4,0-20.7,10.5-20.7,23.3s9.3,23.3,20.7,23.3s20.7-10.5,20.7-23.3S97.9,77.1,86.5,77.1z
	 M86.5,116.1c-7.4,0-13.4-7-13.4-15.7s6-15.7,13.4-15.7s13.4,7,13.4,15.7S93.8,116.1,86.5,116.1L86.5,116.1z"/>
<path class="st0" d="M229,81.6c-5-20-12.2-39.2-21.3-57.6c-0.4-0.6-0.8-1.2-1.4-1.4c-8.9-5.4-18.4-9.9-28.3-13.4
	c-18.2-6.6-27-6.8-27.1-6.8c-1.9,0-3.5,1.4-3.7,3.1l-1.2,7.8c-16.3-1.6-32.6-1.6-48.9,0L96,5.6c-0.2-1.9-1.9-3.3-3.7-3.1
	c-0.4,0-8.9,0-27.1,6.8c-9.9,3.5-19.2,8-28.3,13.4c-0.6,0.4-1,0.8-1.4,1.4c-9.1,18.3-16.3,37.7-21.4,57.5
	c-9.7,38.8-11.4,58.1-11.4,59.1s0.2,1.9,1,2.7c9.1,10.1,20.7,18,33.5,23.7c11.8,5,24,8.3,36.8,10.1c1.4,0.2,2.9-0.6,3.5-1.9
	L87.6,158c11.2,1.9,22.5,2.9,33.9,2.7c11.2,0,22.7-1,33.9-2.7l10.1,17.3c0.6,1.2,1.9,1.9,3.1,1.9h0.4c12.6-1.7,25-5,36.8-10.1
	c12.8-5.4,24.2-13.6,33.9-23.7c0.6-0.8,1-1.7,1-2.7C240.4,139.7,238.7,120.4,229,81.6z M202.8,160.1c-10.5,4.3-21.3,7.4-32.4,9.1
	l-7.6-13c8.7-2.3,26.8-8.3,40.5-20.7c1.6-1.4,1.7-3.7,0.2-5.2c-1.4-1.6-3.7-1.7-5.2-0.2l0,0c-16.7,15.3-41.7,20.2-42.1,20.2l0,0
	c-11.4,2.1-23.3,3.3-34.9,3.3s-23.5-1-34.9-3.1h-0.2c-0.2,0-25.2-4.8-42.1-20.2c-1.6-1.4-3.9-1.2-5.2,0.2c-1.4,1.6-1.2,3.9,0.2,5.2
	c13.8,12.6,31.9,18.6,40.6,20.7l-7.6,13c-11.1-1.7-21.9-4.8-32.4-9.1c-11.2-5-21.3-12-30.1-20.7c0.6-5.4,3.1-24.2,11.2-56.2
	c4.8-19,11.6-37.4,20.4-55.1c8.3-4.8,17.1-8.9,26-12.2c7-2.7,14.2-4.7,21.5-6l0.6,4.5c-7.3,1.8-25.7,7-40.3,17.5
	c-1.7,1.2-1.9,3.5-0.8,5.2c1.2,1.7,3.5,1.9,5.2,0.8c16.5-11.8,39-16.9,40.7-17.3c8.9-1.2,18-1.6,27-1.6c9.1,0,18,0.6,27,1.6
	c1.7,0.4,24.2,5.2,40.7,17.3c1.7,1.2,4.1,0.8,5.2-0.8c1.2-1.7,0.8-4.1-0.8-5.2c-14.5-10.5-32.8-15.9-40.3-17.6l0.6-4.5
	c7.4,1.4,14.5,3.3,21.5,6c8.9,3.3,17.6,7.4,26,12.2c8.7,17.6,15.5,36.1,20.4,55.1c8,32,10.5,50.8,11.2,56.2
	C224.3,148.3,214.1,155.3,202.8,160.1z"/>
<path class="st0" d="M156.3,77.1c-11.4,0-20.7,10.5-20.7,23.3s9.3,23.3,20.7,23.3s20.7-10.5,20.7-23.3S167.7,77.1,156.3,77.1z
	 M156.3,116.1c-7.4,0-13.4-7-13.4-15.7s6-15.7,13.4-15.7s13.4,7,13.4,15.7S163.6,116.1,156.3,116.1L156.3,116.1z"/>
</svg>
