<?xml version="1.0" encoding="utf-8"?>
<!-- Generator: Adobe Illustrator 27.2.0, SVG Export Plug-In . SVG Version: 6.00 Build 0)  -->
<svg version="1.1" id="Layer_1" xmlns="http://www.w3.org/2000/svg" xmlns:xlink="http://www.w3.org/1999/xlink" x="0px" y="0px"
	 viewBox="0 0 50 50" style="enable-background:new 0 0 50 50;" xml:space="preserve">
<style type="text/css">
	.st0{fill:#FFFFFF;}
</style>
<g>
	<g>
		<path class="st0" d="M28,45.9c0-12.2,0-24.4,0-36.7c0-1.7,0-3.4,0-5.1c0-3.9-6-3.9-6,0c0,12.2,0,24.4,0,36.7c0,1.7,0,3.4,0,5.1
			C22,49.8,28,49.8,28,45.9L28,45.9z"/>
	</g>
</g>
<g>
	<g>
		<path class="st0" d="M4.1,28c12.2,0,24.4,0,36.7,0c1.7,0,3.4,0,5.1,0c3.9,0,3.9-6,0-6c-12.2,0-24.4,0-36.7,0c-1.7,0-3.4,0-5.1,0
			C0.2,22,0.2,28,4.1,28L4.1,28z"/>
	</g>
</g>
</svg>
