<?xml version="1.0" encoding="utf-8"?>
<!-- Generator: Adobe Illustrator 27.2.0, SVG Export Plug-In . SVG Version: 6.00 Build 0)  -->
<svg version="1.1" id="Layer_1" xmlns="http://www.w3.org/2000/svg" xmlns:xlink="http://www.w3.org/1999/xlink" x="0px" y="0px"
	 viewBox="0 0 991.1 221.4" style="enable-background:new 0 0 991.1 221.4;" xml:space="preserve">
<style type="text/css">
	.st0{fill:none;stroke:#808080;stroke-width:0.25;stroke-miterlimit:10;}
	.st1{opacity:0.13;fill-rule:evenodd;clip-rule:evenodd;fill:#8E8E8E;}
	.st2{fill:#333333;}
	.st3{fill-rule:evenodd;clip-rule:evenodd;fill:#333333;}
	.st4{fill:#8E8E8E;stroke:#8E8E8E;stroke-width:0.4;stroke-miterlimit:10;}
	.st5{stroke:#000000;stroke-width:0.5;stroke-miterlimit:10;}
	.st6{stroke:#000000;stroke-miterlimit:10;}
	.st7{fill:#8E8E8E;}
</style>
<g>
	<line class="st0" x1="5" y1="110.4" x2="986.5" y2="110.7"/>
</g>
<line class="st0" x1="152" y1="218" x2="152" y2="6"/>
<line class="st0" x1="324" y1="218" x2="324" y2="6"/>
<line class="st0" x1="496" y1="218" x2="496" y2="6"/>
<line class="st0" x1="668" y1="218" x2="668" y2="6"/>
<line class="st0" x1="840" y1="218" x2="840" y2="6"/>
<path class="st1" d="M151,218H12c-3.9,0-7-3.1-7-7V111h146V218z"/>
<rect x="152" y="6" class="st1" width="172" height="105"/>
<rect x="496" y="6" class="st1" width="172" height="105"/>
<rect x="324" y="111" class="st1" width="172" height="107"/>
<rect x="668" y="111" class="st1" width="172" height="107"/>
<path class="st1" d="M986,111H840V6h128.8c9.5,0,17.2,7.7,17.2,17.2V111z"/>
<path class="st2" d="M410.3,27c-11.3,0-13.7,5.9-13.7,9.3v6.4h13V44h-19.4c-4.3,0-9.3,3.4-9.3,13s4.9,13,9.3,13h7.7v-7.8
	c0-2.9,2.3-5.2,5.2-5.2h15.7c2.2,0,3.9-1.7,3.9-3.9V36.3C422.7,31.7,418.4,27,410.3,27z M404.5,33.5c1.4,0,2.6,1.2,2.6,2.6
	s-1.2,2.6-2.6,2.6c-1.4,0-2.6-1.2-2.6-2.6S403,33.5,404.5,33.5z M424,44v9.1c0,2.9-2.3,5.2-5.2,5.2h-15.7c-2.2,0-3.9,1.7-3.9,3.9
	v15.5c0,4.6,4.3,9.3,12.4,9.3c11.3,0,13.7-5.9,13.7-9.3v-6.4h-13V70h19.4c4.3,0,9.3-3.4,9.3-13s-4.9-13-9.3-13H424z M417.5,75.3
	c1.4,0,2.6,1.2,2.6,2.6s-1.2,2.6-2.6,2.6c-1.4,0-2.6-1.2-2.6-2.6S416.1,75.3,417.5,75.3z"/>
<path class="st2" d="M204.3,135.3l5.3,60l24.7,7.1l24.7-7.1c1.8-20,3.5-40,5.3-60H204.3z M247.9,184.7l-13.7,3.5l-13.7-3.5l-0.7-8.8
	h6.8l0.3,3.5l7.3,1.1l7.4-1.1l0.7-8.8h-22.9l1.7-21.2h27.3l1.2,10.6h-6.5l-0.4-3.5h-14.8l-0.6,7.1h22.3L247.9,184.7z"/>
<path class="st2" d="M67.4,50.6c0.2,0.5,0.3,1.2,0.3,2c0,0.9-0.1,1.7-0.3,2.3c-0.2,0.6-0.5,1-0.8,1.4c-0.4,0.3-0.7,0.6-1.2,0.7
	c-0.5,0.1-1,0.2-1.5,0.2c-0.1,0-0.4,0-0.8-0.1c-0.3,0-0.4-0.1-0.6-0.1v-8.4c0.4-0.1,1-0.1,1.6-0.1c0.5,0,0.9,0.1,1.4,0.2
	c0.4,0.1,0.8,0.4,1.1,0.6C66.9,49.7,67.2,50.1,67.4,50.6z M100.7,40v37.5c0,6.2-5,11.2-11.2,11.2H52c-6.2,0-11.2-5-11.2-11.2V40
	c0-6.2,5-11.2,11.2-11.2h37.5C95.7,28.8,100.7,33.8,100.7,40z M72.4,56.9c0.5-1.2,0.7-2.6,0.7-4.2c0-1.8-0.3-3.3-0.8-4.5
	C71.7,47,71,46,70.1,45.4c-0.9-0.6-1.9-1.1-3-1.3c-2.1-0.4-4.4-0.4-6.6-0.1c-1.1,0.1-2,0.3-2.9,0.5c-0.1,0-0.2,0.2-0.2,0.3v25.6
	c0,0.2,0.1,0.3,0.3,0.3h4.7c0.2,0,0.3-0.1,0.3-0.3v-8.6c0.1,0,0.1,0,0.2,0c0.2,0,0.5,0,0.7,0.1c0.3,0,0.5,0,0.7,0h0.5
	c1.1,0,2.2-0.2,3.2-0.5c1-0.3,2-0.9,2.7-1.6C71.3,59,71.9,58,72.4,56.9z M85.1,65.1c0-1.1-0.2-2-0.5-2.7s-0.8-1.3-1.3-1.8
	c-0.5-0.5-1.1-0.9-1.7-1.2c-0.6-0.3-1.1-0.6-1.6-0.9c-0.5-0.3-0.9-0.6-1.2-0.9c-0.3-0.3-0.4-0.6-0.4-0.9c0-0.6,0.2-1.2,1.5-1.2
	c0.6,0,1.2,0.1,1.9,0.3c0.6,0.2,1.2,0.4,1.7,0.6c0.1,0,0.2,0,0.2,0c0.1,0,0.1-0.1,0.2-0.2l1-3.4c0-0.1,0-0.3-0.1-0.3
	c-0.6-0.4-1.4-0.7-2.4-0.9c-1-0.2-2-0.4-3.1-0.4c-1.9,0-3.4,0.5-4.3,1.5c-1,1-1.5,2.4-1.5,4.2c0,1,0.2,1.9,0.5,2.6
	c0.3,0.7,0.8,1.3,1.3,1.8c0.5,0.5,1.1,0.9,1.7,1.2c0.6,0.3,1.1,0.6,1.6,0.9c0.5,0.3,0.9,0.6,1.2,0.9c0.3,0.3,0.4,0.7,0.4,1.1
	c0,0.5-0.1,0.8-0.4,1c-0.3,0.2-0.7,0.3-1.2,0.3c-0.7,0-1.4-0.1-2-0.3c-0.6-0.2-1.2-0.5-1.7-0.7c-0.1,0-0.2-0.1-0.2,0
	c-0.1,0-0.1,0.1-0.2,0.2l-1.2,3.5c0,0.1,0,0.3,0.1,0.3c0.6,0.4,1.4,0.7,2.4,1c1,0.3,2,0.4,3,0.4c2.1,0,3.7-0.5,4.8-1.6
	C84.6,68.3,85.1,66.9,85.1,65.1z"/>
<path class="st3" d="M609.6,137.5l-5.3,60l-24.7,7.1l-24.7-7.1l-5.3-60H609.6z M565.1,176.3h7.1l0.2,4.4l7.2,2.5l7.2-2.5l0.5-7.9
	h-15.5l-0.4-7.1h16.2l0.5-7.1h-24.3l-0.5-7.1h32.3l-0.9,14.1l-1.2,20.3l-13.9,4.6l-13.9-4.6L565.1,176.3z"/>
<path class="st2" d="M780.2,25h-52.4c-2.1,0-3.8,1.7-3.8,3.8v52.4c0,2.1,1.7,3.8,3.8,3.8h52.4c2.1,0,3.8-1.7,3.8-3.8V28.8
	C784,26.7,782.3,25,780.2,25z M756.9,71c0,5.7-3.3,8.3-8.2,8.3c-4.4,0-7.6-3-8.9-5.7l4.5-2.7c0.9,1.5,2.2,2.7,4.1,2.7
	c1.8,0,2.9-0.7,2.9-3.5v-18h5.7V71z M769.3,79.3c-5.1,0-7.9-2.6-9.5-5.7l4.3-2.9c1.2,1.9,2.4,3.7,5.1,3.7c2.3,0,3.4-1.1,3.4-2.7
	c0-1.9-1.2-2.5-3.7-3.6l-1.4-0.6c-3.9-1.7-6.6-3.8-6.6-8.2c0-4.1,3.1-7.2,8-7.2c3.5,0,6,1.2,7.8,4.4l-4.2,2.7
	c-0.9-1.7-1.9-2.3-3.5-2.3c-1.6,0-2.6,1-2.6,2.3c0,1.6,1,2.3,3.3,3.3l1.4,0.6c4.6,2,7.2,4,7.2,8.6C778.3,76.6,774.4,79.3,769.3,79.3
	z"/>
<path class="st2" d="M925,144.6c-1,0-2.1,0.1-3.1,0.5c-2.1,0.7-4.4,2-6.7,3.9c-0.9,0.7-1.8,1.6-2.7,2.5c-0.9-0.9-1.8-1.7-2.7-2.4
	c-2.3-1.9-4.5-3.2-6.7-3.9c-2.1-0.7-4.2-0.7-6,0.3c-1.7,1-2.8,2.8-3.2,5c-0.5,2.2-0.4,4.8,0.1,7.7c0.2,1,0.4,2.1,0.7,3.2
	c-1,0.3-2,0.6-2.9,1c-2.7,1.1-4.9,2.3-6.6,3.8s-2.7,3.3-2.7,5.3s1.1,3.8,2.7,5.3s3.9,2.8,6.6,3.8c1,0.4,2,0.7,3.1,1
	c-0.4,1.4-0.7,2.8-0.9,4.2c-0.5,2.9-0.5,5.5-0.1,7.7c0.5,2.2,1.5,4,3.3,5.1c1.7,1,3.9,1,6,0.3c2.1-0.7,4.4-2,6.7-3.9
	c0.9-0.7,1.8-1.6,2.7-2.4c0.9,0.9,1.8,1.7,2.7,2.4c2.3,1.9,4.5,3.2,6.7,3.9c2.1,0.7,4.2,0.7,6-0.3s2.8-2.8,3.2-5
	c0.5-2.2,0.4-4.8-0.1-7.7c-0.2-1.3-0.5-2.7-0.9-4.2c1.1-0.3,2.2-0.7,3.2-1.1c2.7-1.1,4.9-2.3,6.6-3.8s2.7-3.3,2.7-5.3
	s-1.1-3.8-2.7-5.3s-3.9-2.8-6.6-3.8c-0.9-0.4-1.9-0.7-2.9-1c0.3-1.1,0.5-2.2,0.7-3.2c0.5-2.9,0.5-5.5,0.1-7.7s-1.5-4-3.3-5.1
	C927,144.9,926.1,144.6,925,144.6z M924.9,147.2c0.6,0,1.2,0.2,1.6,0.4c0.9,0.5,1.6,1.6,2,3.3c0.4,1.7,0.4,4-0.1,6.7
	c-0.1,0.9-0.4,1.9-0.6,2.9c-2.7-0.6-5.6-1.1-8.7-1.4c-1.6-2.2-3.2-4.1-4.8-5.9c0.9-0.8,1.7-1.6,2.5-2.3c2.1-1.7,4.1-2.9,5.8-3.4
	C923.6,147.3,924.3,147.2,924.9,147.2z M900.2,147.2c0.6,0,1.4,0.1,2.2,0.4c1.7,0.5,3.7,1.7,5.8,3.4c0.8,0.7,1.6,1.4,2.5,2.2
	c-1.6,1.8-3.3,3.8-4.8,5.9c-3.1,0.3-6,0.8-8.7,1.4c-0.2-1-0.5-2-0.6-2.9c-0.4-2.7-0.4-5-0.1-6.8c0.4-1.7,1.1-2.8,2-3.3
	C899,147.4,899.5,147.3,900.2,147.2z M912.6,155.2c1.1,1.2,2.1,2.4,3.2,3.8c-1,0-2.1-0.1-3.1-0.1c-1.1,0-2.2,0-3.2,0.1
	C910.4,157.6,911.5,156.4,912.6,155.2z M912.6,161.6c1.8,0,3.5,0.1,5.2,0.2c1.2,1.7,2.3,3.4,3.4,5.3c0.9,1.6,1.8,3.3,2.6,4.9
	c-0.8,1.6-1.7,3.3-2.6,5c-0.8,1.5-1.7,2.9-2.6,4.2c-1.9,0.2-3.9,0.2-5.9,0.2c-2.1,0-4.1-0.1-6-0.3c-0.9-1.3-1.7-2.7-2.6-4.1
	c-1-1.7-1.8-3.3-2.6-4.9c0.8-1.6,1.7-3.3,2.6-5c1.1-1.9,2.2-3.6,3.3-5.3C909.1,161.6,910.8,161.6,912.6,161.6z M921.1,162.1
	c2.1,0.3,4.2,0.6,6,1.1c-0.6,1.8-1.2,3.7-2.1,5.7c-0.5-1-1.1-2.1-1.7-3.1C922.7,164.5,921.9,163.3,921.1,162.1z M903.9,162.1
	c-0.8,1.2-1.5,2.3-2.2,3.6c-0.6,1.1-1.2,2.1-1.7,3.2c-0.8-2-1.5-3.9-2.1-5.7C899.8,162.7,901.8,162.4,903.9,162.1z M929.8,163.9
	c0.9,0.3,1.8,0.6,2.6,0.9c2.5,1,4.5,2.1,5.7,3.3c1.3,1.2,1.8,2.3,1.8,3.4s-0.6,2.2-1.8,3.4c-1.3,1.2-3.2,2.3-5.7,3.3
	c-0.9,0.4-1.9,0.7-2.9,1c-0.7-2.3-1.7-4.7-2.8-7.1C927.9,169.2,929,166.5,929.8,163.9z M895.4,163.9c0.8,2.6,1.8,5.3,3.1,8.1
	c-1.1,2.5-2.1,4.9-2.8,7.2c-1-0.3-2-0.6-2.8-1c-2.5-1-4.5-2.1-5.7-3.3c-1.3-1.2-1.8-2.3-1.8-3.4s0.6-2.2,1.8-3.4s3.2-2.3,5.7-3.3
	C893.6,164.4,894.5,164.1,895.4,163.9z M912.6,165.5c-3.6,0-6.5,2.9-6.5,6.5s2.9,6.5,6.5,6.5s6.5-2.9,6.5-6.5
	S916.2,165.5,912.6,165.5z M912.6,168.1c2.2,0,3.9,1.7,3.9,3.9s-1.7,3.9-3.9,3.9s-3.9-1.7-3.9-3.9S910.4,168.1,912.6,168.1z
	 M925.1,175.1c0.7,1.6,1.3,3.2,1.8,4.7c-1.6,0.4-3.2,0.7-5,0.9c0.5-0.8,1-1.6,1.5-2.5C924,177.2,924.6,176.1,925.1,175.1z
	 M900,175.1c0.5,1.1,1.1,2.1,1.7,3.2c0.5,0.8,1,1.6,1.5,2.4c-1.8-0.2-3.4-0.6-5-0.9C898.7,178.3,899.3,176.7,900,175.1z
	 M897.5,182.3c2.4,0.6,4.9,1,7.6,1.3c1.8,2.6,3.7,5,5.6,7c-0.8,0.8-1.7,1.6-2.5,2.3c-2.1,1.7-4.1,2.9-5.8,3.4s-2.9,0.5-3.9-0.1
	s-1.6-1.6-2-3.3c-0.4-1.7-0.4-4,0.1-6.7C896.8,185,897.1,183.7,897.5,182.3z M927.7,182.3c0.4,1.4,0.7,2.7,0.9,3.9
	c0.4,2.7,0.4,5,0.1,6.8c-0.4,1.7-1.1,2.8-2,3.3c-0.9,0.5-2.2,0.6-3.9,0.1c-1.7-0.5-3.7-1.7-5.8-3.4c-0.8-0.7-1.7-1.5-2.5-2.3
	c1.9-2.1,3.8-4.4,5.6-7.1C922.7,183.3,925.3,182.9,927.7,182.3z M908.5,183.8c1.3,0.1,2.7,0.1,4.1,0.1c1.3,0,2.7,0,4-0.1
	c-1.3,1.8-2.7,3.4-4,4.9C911.2,187.3,909.8,185.6,908.5,183.8z"/>
<g>
	<g>
		<path d="M28.4,193.9c-9.1,0-12.3-6.9-12.4-7l1-0.5c0,0,3,6.5,11.4,6.5c6.5,0,11-3.6,11-8.6c0-5.1-4.5-8.5-11.2-8.5h-2v-1h2
			c6.1,0,10.1-3.1,10.1-7.7c0-4.5-4.1-7.8-10-7.8c-7.6,0-10.4,5.9-10.4,5.9l-0.9-0.5c0.1-0.1,3-6.5,11.3-6.5
			c7.4,0,11.1,4.4,11.1,8.9c0,4.7-3.5,7.4-7.9,8.2c5.6,0.9,9,4.3,9,9C40.6,191.1,33.8,193.9,28.4,193.9z"/>
		<path d="M28.4,194.4c-9,0-12.5-6.5-12.8-7.3l-0.2-0.5l1.9-0.9l0.2,0.5c0.1,0.3,3,6.2,10.9,6.2c6.1,0,10.5-3.4,10.5-8.1
			c0-4.8-4.3-8-10.7-8h-2.5v-2h2.5c5.8,0,9.6-2.9,9.6-7.2c0-4.3-3.9-7.3-9.5-7.3c-7.2,0-9.8,5.4-9.9,5.6l-0.2,0.5l-1.8-0.9l0.2-0.4
			c0.3-0.7,3.5-6.7,11.8-6.7c8,0,11.6,4.9,11.6,9.4c0,3.9-2.3,6.8-6.3,8.2c4.6,1.4,7.4,4.8,7.4,9.1
			C41.1,191.3,34.5,194.4,28.4,194.4z M16.7,187.2c0.9,1.5,3.9,5.7,10.5,6.2C20.7,192.9,17.6,188.5,16.7,187.2L16.7,187.2z
			 M36.4,177.6c2.2,1.6,3.5,3.9,3.5,6.7c0,4.5-3.6,8-8.8,8.9c4.7-0.8,9.1-3.6,9.1-8.9C40.1,181.5,38.8,179.1,36.4,177.6z
			 M26.7,175.3h1.5c0.2,0,0.4,0,0.6,0l0,0l0.4-0.1c-0.3,0-0.6,0-1,0L26.7,175.3z M28.4,158.8c6.1,0,10.5,3.5,10.5,8.3
			c0,2.5-1.2,4.7-3.2,6.1c2.1-1.4,3.3-3.5,3.3-6.1C39,163.1,35.7,158.7,28.4,158.8c-6.8-0.1-9.8,4.2-10.7,5.7l0.1,0
			C18.6,163.1,21.8,158.8,28.4,158.8z"/>
	</g>
	<g>
		<path d="M69.8,177.4v1H60v9.8h-1v-9.8h-9.8v-1H59v-9.8h1v9.8H69.8z"/>
		<polygon points="60.5,188.7 58.5,188.7 58.5,178.9 48.7,178.9 48.7,176.9 58.5,176.9 58.5,167.2 60.5,167.2 60.5,176.9 
			70.3,176.9 70.3,178.9 60.5,178.9 		"/>
	</g>
</g>
<g>
	<path class="st4" d="M22.9,202.2l-3.2,4.5v3.3h-0.3v-3.3l-3.2-4.5h0.3l3,4.2l3-4.2H22.9z"/>
	<path class="st4" d="M22.9,207.3c0,1.3,0.8,2.7,2.6,2.7c0.7,0,1.5-0.3,1.9-0.6l0.1,0.2c-0.5,0.4-1.3,0.7-2,0.7
		c-1.9,0-2.8-1.3-2.8-3s1-3,2.7-3c1.7,0,2.7,1.4,2.7,3v0.1H22.9z M27.9,207.1c0-1.3-0.8-2.7-2.4-2.7c-1.7,0-2.4,1.4-2.5,2.7H27.9z"
		/>
	<path class="st4" d="M33.8,210h-0.2c0-0.1-0.1-0.4-0.2-0.7c-0.3,0.3-0.9,0.9-2,0.9c-1.2,0-2.3-0.6-2.3-1.8c0-0.3,0.1-1.8,2.4-1.7
		c0.5,0,1,0.1,1.9,0.3v-1c0-1.1-1-1.6-1.8-1.6c-1,0-1.8,0.6-1.9,0.8l-0.2-0.1c0.2-0.3,1-0.9,2.1-0.9c1.1,0,2.1,0.6,2.1,1.8v3
		C33.7,209.5,33.8,210,33.8,210z M33.4,207.2c-2.2-0.7-4-0.3-4,1.2c0,1.1,1,1.6,2,1.6c1.1,0,1.7-0.6,1.9-0.9V207.2z"/>
	<path class="st4" d="M38.6,204.2v0.2c-1.7,0-2.5,1.4-2.5,2.8v2.8h-0.2v-5.6H36v1.6C36.4,204.9,37.3,204.2,38.6,204.2z"/>
	<path class="st4" d="M44.1,208.6c0,0.9-0.8,1.6-2.2,1.6c-1.2,0-2.1-0.7-2.2-0.9l0.2-0.1c0.1,0.1,0.9,0.8,2,0.8c0.9,0,2-0.4,2-1.3
		c0-1.9-4-0.8-4-2.9c0-0.9,0.8-1.5,2-1.5c1.2,0,1.9,0.7,2,0.9l-0.2,0.1c0-0.1-0.6-0.8-1.8-0.8c-1,0-1.7,0.6-1.7,1.3
		C40,207.5,44.1,206.5,44.1,208.6z"/>
</g>
<g>
	<path class="st5" d="M26.2,128.8h-0.4l-1.4-3.3h-5.6l-1.4,3.3H17l4.4-10.6h0.3L26.2,128.8z M24.3,125.1l-2.7-6.4l-2.7,6.4H24.3z"/>
	<path class="st5" d="M34.6,118v10.8h-0.3v-2.2c-0.5,1.4-1.7,2.5-3.4,2.5c-2.3,0-3.7-1.8-3.7-4c0-2.2,1.4-4.1,3.7-4.1
		c1.7,0,2.9,1,3.4,2.5V118H34.6z M34.2,125c0-1.8-1.1-3.8-3.4-3.8c-2.4,0-3.4,2-3.4,3.8s1.1,3.7,3.4,3.7
		C33.2,128.7,34.2,126.8,34.2,125z"/>
	<path class="st5" d="M44.6,125c0,2.2-1.4,4-3.7,4c-2.3,0-3.7-1.8-3.7-4c0-2.2,1.4-4.1,3.7-4.1C43.1,120.9,44.6,122.7,44.6,125z
		 M44.3,125c0-1.8-1.1-3.8-3.4-3.8c-2.4,0-3.4,2-3.4,3.8c0,1.8,1.1,3.7,3.4,3.7C43.2,128.7,44.3,126.7,44.3,125z"/>
	<path class="st5" d="M54.6,125c0,2.2-1.4,4-3.7,4c-1.7,0-2.9-1-3.4-2.5v2.2h-0.3V118h0.3v5.4c0.5-1.4,1.7-2.5,3.4-2.5
		C53.2,120.9,54.6,122.7,54.6,125z M54.3,125c0-1.8-1.1-3.8-3.4-3.8s-3.4,2-3.4,3.8s1.1,3.7,3.4,3.7S54.3,126.8,54.3,125z"/>
	<path class="st5" d="M57,125.1c0,1.8,1,3.6,3.5,3.6c1,0,2-0.3,2.5-0.8l0.2,0.2c-0.6,0.6-1.7,0.9-2.7,0.9c-2.6,0-3.8-1.8-3.8-4
		c0-2.2,1.4-4.1,3.7-4.1s3.6,1.8,3.6,4.1v0.1H57z M63.6,124.8c0-1.8-1.1-3.6-3.3-3.6c-2.3,0-3.3,1.9-3.4,3.6H63.6z"/>
	<path class="st5" d="M25.2,141c0,2.1-1.5,3.3-3.2,3.3h-3.5v4h-0.4v-10.6H22C23.7,137.7,25.2,138.8,25.2,141z M24.8,141
		c0-2.1-1.6-2.9-2.8-3h-3.5v5.9H22C23.5,143.9,24.8,142.9,24.8,141z"/>
	<path class="st5" d="M33.7,143.1v5.2h-0.3v-5.2c0-0.5-0.4-2.4-2.4-2.4c-2.1,0-3,1.9-3.1,2.2v5.3h-0.3v-10.8h0.3v4.9
		c0.4-0.7,1.3-2,3.1-2C33.3,140.4,33.7,142.7,33.7,143.1z"/>
	<path class="st5" d="M43.3,144.5c0,2.2-1.4,4-3.7,4c-2.3,0-3.7-1.8-3.7-4c0-2.2,1.4-4.1,3.7-4.1C41.9,140.4,43.3,142.2,43.3,144.5z
		 M43,144.5c0-1.8-1.1-3.8-3.4-3.8c-2.4,0-3.4,2-3.4,3.8c0,1.8,1.1,3.7,3.4,3.7C41.9,148.2,43,146.2,43,144.5z"/>
	<path class="st5" d="M48.6,148c0,0-0.6,0.5-1.6,0.5c-1.6,0-1.5-1.8-1.5-2.5v-5.1h-1.2v-0.3h1.2v-2.1h0.3v2.1h2.4v0.3h-2.4v5.2
		c0,1.4,0.3,2.1,1.2,2.1c0.8,0,1.3-0.4,1.4-0.4L48.6,148z"/>
	<path class="st5" d="M56.8,144.5c0,2.2-1.4,4-3.7,4c-2.3,0-3.7-1.8-3.7-4c0-2.2,1.4-4.1,3.7-4.1C55.4,140.4,56.8,142.2,56.8,144.5z
		 M56.5,144.5c0-1.8-1.1-3.8-3.4-3.8c-2.4,0-3.4,2-3.4,3.8c0,1.8,1.1,3.7,3.4,3.7C55.5,148.2,56.5,146.2,56.5,144.5z"/>
	<path class="st5" d="M64.4,146.4c0,1.2-1.1,2.1-3,2.1c-1.7,0-2.8-0.9-3-1.2l0.2-0.2c0.1,0.2,1.2,1,2.7,1c1.2,0,2.6-0.5,2.6-1.8
		c0-2.6-5.4-1.1-5.4-3.9c0-1.2,1.1-2,2.7-2c1.7,0,2.6,1,2.7,1.2l-0.2,0.2c-0.1-0.1-0.9-1.1-2.5-1.1c-1.3,0-2.3,0.8-2.3,1.7
		C59,144.9,64.4,143.5,64.4,146.4z"/>
	<path class="st5" d="M73,143.1v5.2h-0.3v-5.2c0-0.5-0.4-2.4-2.4-2.4c-2.1,0-3,1.9-3.1,2.2v5.3h-0.3v-10.8h0.3v4.9
		c0.4-0.7,1.3-2,3.1-2C72.7,140.4,73,142.7,73,143.1z"/>
	<path class="st5" d="M82.6,144.5c0,2.2-1.4,4-3.7,4c-2.3,0-3.7-1.8-3.7-4c0-2.2,1.4-4.1,3.7-4.1C81.2,140.4,82.6,142.2,82.6,144.5z
		 M82.3,144.5c0-1.8-1.1-3.8-3.4-3.8c-2.4,0-3.4,2-3.4,3.8c0,1.8,1.1,3.7,3.4,3.7C81.2,148.2,82.3,146.2,82.3,144.5z"/>
	<path class="st5" d="M92.6,144.5c0,2.2-1.4,4-3.7,4c-1.7,0-2.9-1-3.4-2.5v5.2h-0.3v-10.6h0.3v2.2c0.5-1.4,1.7-2.5,3.4-2.5
		C91.2,140.4,92.6,142.2,92.6,144.5z M92.3,144.5c0-1.8-1.1-3.8-3.4-3.8s-3.4,2-3.4,3.8s1.1,3.7,3.4,3.7S92.3,146.2,92.3,144.5z"/>
</g>
<g>
	<path class="st6" d="M189,77.1v1h-6.2v8.1h-1.2V78h-18.7v-1c5.6-15.4,18.8-25.1,18.8-25.1h1v25.1H189z M181.6,53.5
		c-3.6,3-12.9,11.2-17.5,23.5h17.5V53.5z"/>
	<path class="st6" d="M217.4,70.4v1h-9.8v9.8h-1v-9.8h-9.8v-1h9.8v-9.8h1v9.8H217.4z"/>
</g>
<g>
	<g>
		<path class="st7" d="M169.9,95.2l-3.2,4.5v3.3h-0.3v-3.3l-3.2-4.5h0.3l3,4.2l3-4.2H169.9z"/>
		<polygon class="st7" points="166.9,103.2 166.2,103.2 166.2,99.7 162.9,95 163.7,95 166.6,99.1 169.4,95 170.2,95 166.9,99.7 		
			"/>
	</g>
	<g>
		<path class="st7" d="M169.9,100.3c0,1.3,0.8,2.7,2.6,2.7c0.7,0,1.5-0.3,1.9-0.6l0.1,0.2c-0.5,0.4-1.3,0.7-2,0.7
			c-1.9,0-2.8-1.3-2.8-3s1-3,2.7-3c1.7,0,2.7,1.4,2.7,3v0.1H169.9z M174.9,100.1c0-1.3-0.8-2.7-2.4-2.7c-1.7,0-2.4,1.4-2.5,2.7
			H174.9z"/>
		<path class="st7" d="M172.6,103.4c-1.9,0-3-1.2-3-3.2c0-1.9,1.2-3.2,2.9-3.2c1.7,0,2.9,1.3,2.9,3.2v0.3h-5.1
			c0.1,1.1,0.8,2.3,2.4,2.3c0.7,0,1.3-0.2,1.7-0.6l0.2-0.1l0.4,0.5l-0.1,0.1C174.2,103.1,173.4,103.4,172.6,103.4z M170.2,99.9h4.5
			c-0.1-1.2-0.8-2.3-2.2-2.3C171,97.6,170.3,98.7,170.2,99.9z"/>
	</g>
	<g>
		<path class="st7" d="M180.8,103h-0.2c0-0.1-0.1-0.4-0.2-0.7c-0.3,0.3-0.9,0.9-2,0.9c-1.2,0-2.3-0.6-2.3-1.8c0-0.3,0.1-1.8,2.4-1.7
			c0.5,0,1,0.1,1.9,0.3v-1c0-1.1-1-1.6-1.8-1.6c-1,0-1.8,0.6-1.9,0.8l-0.2-0.1c0.2-0.3,1-0.9,2.1-0.9c1.1,0,2.1,0.6,2.1,1.8v3
			C180.7,102.5,180.8,103,180.8,103z M180.4,100.2c-2.2-0.7-4-0.3-4,1.2c0,1.1,1,1.6,2,1.6c1.1,0,1.7-0.6,1.9-0.9V100.2z"/>
		<path class="st7" d="M178.5,103.4c-1.5,0-2.5-0.8-2.5-2c0-0.2,0.1-0.8,0.5-1.3c0.4-0.4,1.1-0.6,2-0.6c0.5,0,0.9,0,1.7,0.2V99
			c0-1-0.9-1.4-1.6-1.4c-1,0-1.6,0.6-1.8,0.7l-0.1,0.2l-0.5-0.4l0.1-0.2c0.2-0.3,1-1,2.3-1c1.4,0,2.3,0.8,2.3,2v3
			c0,0.4,0.2,0.9,0.2,0.9l0.1,0.3l-0.6,0l-0.1-0.1c0-0.1-0.1-0.2-0.1-0.4C179.8,103.1,179.2,103.4,178.5,103.4z M178.5,100.1
			c-0.6,0-1.1,0.1-1.4,0.4c-0.3,0.2-0.5,0.5-0.5,0.9c0,0.9,0.9,1.4,1.8,1.4c0.7,0,1.3-0.3,1.7-0.8v-1.6
			C179.6,100.2,179,100.1,178.5,100.1z"/>
	</g>
	<g>
		<path class="st7" d="M185.6,97.2v0.2c-1.7,0-2.5,1.4-2.5,2.8v2.8h-0.2v-5.6h0.2V99C183.4,97.9,184.3,97.2,185.6,97.2z"/>
		<path class="st7" d="M183.2,103.2h-0.6v-6h0.6v1c0.5-0.7,1.4-1.2,2.3-1.2h0.2v0.6h-0.2c-1.6,0-2.3,1.3-2.3,2.6V103.2z"/>
	</g>
	<g>
		<path class="st7" d="M191.1,101.6c0,0.9-0.8,1.6-2.2,1.6c-1.2,0-2.1-0.7-2.2-0.9l0.2-0.1c0.1,0.1,0.9,0.8,2,0.8c0.9,0,2-0.4,2-1.3
			c0-1.9-4-0.8-4-2.9c0-0.9,0.8-1.5,2-1.5c1.2,0,1.9,0.7,2,0.9l-0.2,0.1c0-0.1-0.6-0.8-1.8-0.8c-1,0-1.7,0.6-1.7,1.3
			C187,100.5,191.1,99.5,191.1,101.6z"/>
		<path class="st7" d="M188.8,103.4c-1.3,0-2.2-0.8-2.3-0.9l-0.1-0.2l0.5-0.4l0.1,0.1c0.1,0.1,0.8,0.7,1.9,0.7
			c0.7,0,1.8-0.2,1.8-1.1c0-0.7-0.7-0.9-1.8-1.2c-1-0.2-2.2-0.5-2.2-1.7c0-1,0.9-1.7,2.2-1.7c1.4,0,2.1,0.9,2.2,1l0.1,0.2l-0.5,0.4
			l-0.1-0.2c-0.1-0.1-0.6-0.7-1.7-0.7c-0.9,0-1.5,0.5-1.5,1.1c0,0.7,0.7,0.9,1.7,1.1c1.1,0.2,2.3,0.5,2.3,1.8
			C191.3,102.7,190.3,103.4,188.8,103.4z"/>
	</g>
</g>
<g>
	<path class="st5" d="M173.1,20.5l0.2,0.2c-0.9,0.8-2.1,1.3-3.5,1.3c-3.2,0-5.2-2.5-5.2-5.5c0-3.1,2-5.5,5.2-5.5
		c1.4,0,2.6,0.5,3.5,1.3l-0.2,0.2c-0.8-0.7-1.9-1.2-3.3-1.2c-3.2,0-4.8,2.6-4.8,5.2c0,2.6,1.6,5.2,4.8,5.2
		C171.1,21.7,172.3,21.2,173.1,20.5z"/>
	<path class="st5" d="M182.5,19.1c0,1.6-1.4,2.9-3.9,2.9c-2.6,0-3.9-1.6-3.9-1.6l0.3-0.2c0,0,1.2,1.5,3.6,1.5c1.7,0,3.6-0.7,3.6-2.6
		c0-3.6-7.2-1.6-7.2-5.4c0-1.6,1.6-2.8,3.5-2.8c2.3,0,3.3,1.4,3.5,1.6l-0.3,0.2c-0.2-0.2-1.2-1.5-3.2-1.5c-1.8,0-3.1,1.1-3.1,2.4
		C175.2,17.1,182.5,15.2,182.5,19.1z"/>
	<path class="st5" d="M192.3,19.1c0,1.6-1.4,2.9-3.9,2.9c-2.6,0-3.9-1.6-3.9-1.6l0.3-0.2c0,0,1.2,1.5,3.6,1.5c1.7,0,3.6-0.7,3.6-2.6
		c0-3.6-7.2-1.6-7.2-5.4c0-1.6,1.6-2.8,3.5-2.8c2.3,0,3.3,1.4,3.5,1.6l-0.3,0.2c-0.2-0.2-1.2-1.5-3.2-1.5c-1.8,0-3.1,1.1-3.1,2.4
		C185,17.1,192.3,15.2,192.3,19.1z"/>
</g>
<g>
	<path class="st6" d="M358.2,194.2v1h-23c0-17.7,21.7-13.9,21.7-25.7c0-4.7-4.3-8.2-10-8.2c-7.5,0-10.8,6.5-10.8,6.5l-0.9-0.5
		c0.1-0.1,3.5-7,11.7-7c6.4,0,11.1,3.9,11.1,9.3c0,12.5-20.8,8.9-21.7,24.7H358.2z"/>
	<path class="st6" d="M387.2,179.4v1h-9.8v9.8h-1v-9.8h-9.8v-1h9.8v-9.8h1v9.8H387.2z"/>
</g>
<g>
	<path class="st4" d="M341.9,204.2l-3.2,4.5v3.3h-0.3v-3.3l-3.2-4.5h0.3l3,4.2l3-4.2H341.9z"/>
	<path class="st4" d="M341.9,209.3c0,1.3,0.8,2.7,2.6,2.7c0.7,0,1.5-0.3,1.9-0.6l0.1,0.2c-0.5,0.4-1.3,0.7-2,0.7
		c-1.9,0-2.8-1.3-2.8-3s1-3,2.7-3c1.7,0,2.7,1.4,2.7,3v0.1H341.9z M346.9,209.1c0-1.3-0.8-2.7-2.4-2.7c-1.7,0-2.4,1.4-2.5,2.7H346.9
		z"/>
	<path class="st4" d="M352.8,212h-0.2c0-0.1-0.1-0.4-0.2-0.7c-0.3,0.3-0.9,0.9-2,0.9c-1.2,0-2.3-0.6-2.3-1.8c0-0.3,0.1-1.8,2.4-1.7
		c0.5,0,1,0.1,1.9,0.3v-1c0-1.1-1-1.6-1.8-1.6c-1,0-1.8,0.6-1.9,0.8l-0.2-0.1c0.2-0.3,1-0.9,2.1-0.9c1.1,0,2.1,0.6,2.1,1.8v3
		C352.7,211.5,352.8,212,352.8,212z M352.4,209.2c-2.2-0.7-4-0.3-4,1.2c0,1.1,1,1.6,2,1.6c1.1,0,1.7-0.6,1.9-0.9V209.2z"/>
	<path class="st4" d="M357.6,206.2v0.2c-1.7,0-2.5,1.4-2.5,2.8v2.8h-0.2v-5.6h0.2v1.6C355.4,206.9,356.3,206.2,357.6,206.2z"/>
	<path class="st4" d="M363.1,210.6c0,0.9-0.8,1.6-2.2,1.6c-1.2,0-2.1-0.7-2.2-0.9l0.2-0.1c0.1,0.1,0.9,0.8,2,0.8c0.9,0,2-0.4,2-1.3
		c0-1.9-4-0.8-4-2.9c0-0.9,0.8-1.5,2-1.5c1.2,0,1.9,0.7,2,0.9l-0.2,0.1c0-0.1-0.6-0.8-1.8-0.8c-1,0-1.7,0.6-1.7,1.3
		C359,209.5,363.1,208.5,363.1,210.6z"/>
</g>
<g>
	<path class="st5" d="M344.2,123.5c0,2.1-1.5,3.3-3.2,3.3h-3.5v4h-0.4v-10.6h3.9C342.7,120.2,344.2,121.3,344.2,123.5z M343.8,123.5
		c0-2.1-1.6-2.9-2.8-3h-3.5v5.9h3.5C342.5,126.4,343.8,125.4,343.8,123.5z"/>
	<path class="st5" d="M353.1,123.1l-4.6,9.8c-0.2,0.5-0.5,1-1.3,1c-0.7,0-0.9-0.3-1-0.3l0.2-0.2c0,0,0.2,0.3,0.8,0.3
		c0.6,0,0.8-0.2,1-0.7l1-2.1l-3.5-7.6h0.3l3.4,7.3l3.3-7.3H353.1z"/>
	<path class="st5" d="M358.6,130.5c0,0-0.6,0.5-1.6,0.5c-1.6,0-1.5-1.8-1.5-2.5v-5.1h-1.2v-0.3h1.2v-2.1h0.3v2.1h2.4v0.3h-2.4v5.2
		c0,1.4,0.3,2.1,1.2,2.1c0.8,0,1.3-0.4,1.4-0.4L358.6,130.5z"/>
	<path class="st5" d="M366.8,125.6v5.2h-0.3v-5.2c0-0.5-0.4-2.4-2.4-2.4c-2.1,0-3,1.9-3.1,2.2v5.3h-0.3V120h0.3v4.9
		c0.4-0.7,1.3-2,3.1-2C366.5,122.9,366.8,125.2,366.8,125.6z"/>
	<path class="st5" d="M376.4,127c0,2.2-1.4,4-3.7,4c-2.3,0-3.7-1.8-3.7-4c0-2.2,1.4-4.1,3.7-4.1C375,122.9,376.4,124.7,376.4,127z
		 M376.1,127c0-1.8-1.1-3.8-3.4-3.8c-2.4,0-3.4,2-3.4,3.8c0,1.8,1.1,3.7,3.4,3.7C375.1,130.7,376.1,128.7,376.1,127z"/>
	<path class="st5" d="M385.1,125.6v5.2h-0.3v-5.2c0-0.5-0.4-2.4-2.4-2.4c-2.1,0-3,1.9-3.1,2.2v5.3H379v-7.6h0.3v1.7
		c0.4-0.7,1.3-2,3.1-2C384.8,122.9,385.1,125.2,385.1,125.6z"/>
</g>
<g>
	<path class="st6" d="M531,78.1v1h-6.2v8.1h-1.2V79h-18.7v-1c5.6-15.4,18.8-25.1,18.8-25.1h1v25.1H531z M523.6,54.5
		c-3.6,3-12.9,11.2-17.5,23.5h17.5V54.5z"/>
	<path class="st6" d="M559.4,71.4v1h-9.8v9.8h-1v-9.8h-9.8v-1h9.8v-9.8h1v9.8H559.4z"/>
</g>
<g>
	<path class="st4" d="M511.9,96.2l-3.2,4.5v3.3h-0.3v-3.3l-3.2-4.5h0.3l3,4.2l3-4.2H511.9z"/>
	<path class="st4" d="M511.9,101.3c0,1.3,0.8,2.7,2.6,2.7c0.7,0,1.5-0.3,1.9-0.6l0.1,0.2c-0.5,0.4-1.3,0.7-2,0.7
		c-1.9,0-2.8-1.3-2.8-3s1-3,2.7-3c1.7,0,2.7,1.4,2.7,3v0.1H511.9z M516.9,101.1c0-1.3-0.8-2.7-2.4-2.7c-1.7,0-2.4,1.4-2.5,2.7H516.9
		z"/>
	<path class="st4" d="M522.8,104h-0.2c0-0.1-0.1-0.4-0.2-0.7c-0.3,0.3-0.9,0.9-2,0.9c-1.2,0-2.3-0.6-2.3-1.8c0-0.3,0.1-1.8,2.4-1.7
		c0.5,0,1,0.1,1.9,0.3v-1c0-1.1-1-1.6-1.8-1.6c-1,0-1.8,0.6-1.9,0.8l-0.2-0.1c0.2-0.3,1-0.9,2.1-0.9c1.1,0,2.1,0.6,2.1,1.8v3
		C522.7,103.5,522.8,104,522.8,104z M522.4,101.2c-2.2-0.7-4-0.3-4,1.2c0,1.1,1,1.6,2,1.6c1.1,0,1.7-0.6,1.9-0.9V101.2z"/>
	<path class="st4" d="M527.6,98.2v0.2c-1.7,0-2.5,1.4-2.5,2.8v2.8h-0.2v-5.6h0.2v1.6C525.4,98.9,526.3,98.2,527.6,98.2z"/>
	<path class="st4" d="M533.1,102.6c0,0.9-0.8,1.6-2.2,1.6c-1.2,0-2.1-0.7-2.2-0.9l0.2-0.1c0.1,0.1,0.9,0.8,2,0.8c0.9,0,2-0.4,2-1.3
		c0-1.9-4-0.8-4-2.9c0-0.9,0.8-1.5,2-1.5c1.2,0,1.9,0.7,2,0.9l-0.2,0.1c0-0.1-0.6-0.8-1.8-0.8c-1,0-1.7,0.6-1.7,1.3
		C529,101.5,533.1,100.5,533.1,102.6z"/>
</g>
<g>
	<path class="st5" d="M515.1,21.5l0.2,0.2c-0.9,0.8-2.1,1.3-3.5,1.3c-3.2,0-5.2-2.5-5.2-5.5c0-3.1,2-5.5,5.2-5.5
		c1.4,0,2.6,0.5,3.5,1.3l-0.2,0.2c-0.8-0.7-1.9-1.2-3.3-1.2c-3.2,0-4.8,2.6-4.8,5.2c0,2.6,1.6,5.2,4.8,5.2
		C513.1,22.7,514.3,22.2,515.1,21.5z"/>
	<path class="st5" d="M524.5,20.1c0,1.6-1.4,2.9-3.9,2.9c-2.6,0-3.9-1.6-3.9-1.6l0.3-0.2c0,0,1.2,1.5,3.6,1.5c1.7,0,3.6-0.7,3.6-2.6
		c0-3.6-7.2-1.6-7.2-5.4c0-1.6,1.6-2.8,3.5-2.8c2.3,0,3.3,1.4,3.5,1.6l-0.3,0.2c-0.2-0.2-1.2-1.5-3.2-1.5c-1.8,0-3.1,1.1-3.1,2.4
		C517.2,18.1,524.5,16.2,524.5,20.1z"/>
	<path class="st5" d="M534.3,20.1c0,1.6-1.4,2.9-3.9,2.9c-2.6,0-3.9-1.6-3.9-1.6l0.3-0.2c0,0,1.2,1.5,3.6,1.5c1.7,0,3.6-0.7,3.6-2.6
		c0-3.6-7.2-1.6-7.2-5.4c0-1.6,1.6-2.8,3.5-2.8c2.3,0,3.3,1.4,3.5,1.6l-0.3,0.2c-0.2-0.2-1.2-1.5-3.2-1.5c-1.8,0-3.1,1.1-3.1,2.4
		C527,18.1,534.3,16.2,534.3,20.1z"/>
</g>
<g>
	<path class="st6" d="M692.4,195.9c-9.1,0-12.3-6.9-12.4-7l1-0.5c0,0,3,6.5,11.4,6.5c6.5,0,11-3.6,11-8.6c0-5.1-4.5-8.5-11.2-8.5h-2
		v-1h2c6.1,0,10.1-3.1,10.1-7.7c0-4.5-4.1-7.8-10-7.8c-7.6,0-10.4,5.9-10.4,5.9l-0.9-0.5c0.1-0.1,3-6.5,11.3-6.5
		c7.4,0,11.1,4.4,11.1,8.9c0,4.7-3.5,7.4-7.9,8.2c5.6,0.9,9,4.3,9,9C704.6,193.1,697.8,195.9,692.4,195.9z"/>
	<path class="st6" d="M733.8,179.4v1H724v9.8h-1v-9.8h-9.8v-1h9.8v-9.8h1v9.8H733.8z"/>
</g>
<g>
	<path class="st4" d="M686.9,204.2l-3.2,4.5v3.3h-0.3v-3.3l-3.2-4.5h0.3l3,4.2l3-4.2H686.9z"/>
	<path class="st4" d="M686.9,209.3c0,1.3,0.8,2.7,2.6,2.7c0.7,0,1.5-0.3,1.9-0.6l0.1,0.2c-0.5,0.4-1.3,0.7-2,0.7
		c-1.9,0-2.8-1.3-2.8-3s1-3,2.7-3c1.7,0,2.7,1.4,2.7,3v0.1H686.9z M691.9,209.1c0-1.3-0.8-2.7-2.4-2.7c-1.7,0-2.4,1.4-2.5,2.7H691.9
		z"/>
	<path class="st4" d="M697.8,212h-0.2c0-0.1-0.1-0.4-0.2-0.7c-0.3,0.3-0.9,0.9-2,0.9c-1.2,0-2.3-0.6-2.3-1.8c0-0.3,0.1-1.8,2.4-1.7
		c0.5,0,1,0.1,1.9,0.3v-1c0-1.1-1-1.6-1.8-1.6c-1,0-1.8,0.6-1.9,0.8l-0.2-0.1c0.2-0.3,1-0.9,2.1-0.9c1.1,0,2.1,0.6,2.1,1.8v3
		C697.7,211.5,697.8,212,697.8,212z M697.4,209.2c-2.2-0.7-4-0.3-4,1.2c0,1.1,1,1.6,2,1.6c1.1,0,1.7-0.6,1.9-0.9V209.2z"/>
	<path class="st4" d="M702.6,206.2v0.2c-1.7,0-2.5,1.4-2.5,2.8v2.8h-0.2v-5.6h0.2v1.6C700.4,206.9,701.3,206.2,702.6,206.2z"/>
	<path class="st4" d="M708.1,210.6c0,0.9-0.8,1.6-2.2,1.6c-1.2,0-2.1-0.7-2.2-0.9l0.2-0.1c0.1,0.1,0.9,0.8,2,0.8c0.9,0,2-0.4,2-1.3
		c0-1.9-4-0.8-4-2.9c0-0.9,0.8-1.5,2-1.5c1.2,0,1.9,0.7,2,0.9l-0.2,0.1c0-0.1-0.6-0.8-1.8-0.8c-1,0-1.7,0.6-1.7,1.3
		C704,209.5,708.1,208.5,708.1,210.6z"/>
</g>
<g>
	<path class="st5" d="M687.1,120.2v7.3c0,1-0.3,3.5-3.1,3.5c-2,0-2.8-1.2-3-1.8l0.3-0.1c0.2,0.5,0.8,1.6,2.7,1.6
		c2.4,0,2.8-2.1,2.8-3.2v-7.3H687.1z"/>
	<path class="st5" d="M695.5,130.8h-0.3c-0.1-0.1-0.2-0.6-0.2-0.9c-0.4,0.5-1.2,1.2-2.6,1.2c-1.7,0-3.1-0.8-3.1-2.4
		c0-0.3,0.1-2.4,3.2-2.3c0.7,0,1.4,0.1,2.5,0.4v-1.3c0-1.5-1.3-2.1-2.5-2.1c-1.4,0-2.4,0.8-2.6,1.1l-0.3-0.2
		c0.3-0.3,1.3-1.2,2.9-1.2c1.5,0,2.8,0.8,2.8,2.4v4.1C695.2,130.1,695.5,130.8,695.5,130.8z M694.9,127c-3-0.9-5.4-0.4-5.4,1.6
		c0,1.5,1.4,2.1,2.8,2.1c1.5,0,2.3-0.8,2.6-1.2V127z"/>
	<path class="st5" d="M704,123.1l-3.5,7.6h-0.3l-3.5-7.6h0.3l3.4,7.3l3.3-7.3H704z"/>
	<path class="st5" d="M711.4,130.8h-0.3c-0.1-0.1-0.2-0.6-0.2-0.9c-0.4,0.5-1.2,1.2-2.6,1.2c-1.7,0-3.1-0.8-3.1-2.4
		c0-0.3,0.1-2.4,3.2-2.3c0.7,0,1.4,0.1,2.5,0.4v-1.3c0-1.5-1.3-2.1-2.5-2.1c-1.4,0-2.4,0.8-2.6,1.1l-0.3-0.2
		c0.3-0.3,1.3-1.2,2.9-1.2c1.5,0,2.8,0.8,2.8,2.4v4.1C711.1,130.1,711.4,130.8,711.4,130.8z M710.8,127c-3-0.9-5.4-0.4-5.4,1.6
		c0,1.5,1.4,2.1,2.8,2.1c1.5,0,2.3-0.8,2.6-1.2V127z"/>
	<path class="st5" d="M721.4,128.1c0,1.6-1.4,2.9-3.9,2.9c-2.6,0-3.9-1.6-3.9-1.6l0.3-0.2c0,0,1.2,1.5,3.6,1.5
		c1.7,0,3.6-0.7,3.6-2.6c0-3.6-7.2-1.6-7.2-5.4c0-1.6,1.6-2.8,3.5-2.8c2.3,0,3.3,1.4,3.5,1.6l-0.3,0.2c-0.2-0.2-1.2-1.5-3.2-1.5
		c-1.8,0-3.1,1.1-3.1,2.4C714.1,126.1,721.4,124.2,721.4,128.1z"/>
	<path class="st5" d="M729.8,130.1c-0.6,0.6-1.6,0.9-2.6,0.9c-2.3,0-3.9-1.8-3.9-4c0-2.2,1.6-4.1,3.9-4.1c1,0,2,0.4,2.6,0.9
		l-0.2,0.2c-0.6-0.5-1.5-0.8-2.4-0.8c-2.4,0-3.6,2-3.6,3.8c0,1.8,1.2,3.7,3.6,3.7c1,0,1.9-0.4,2.4-0.9L729.8,130.1z"/>
	<path class="st5" d="M735.7,122.9v0.3c-2.4,0-3.4,2-3.4,3.8v3.8H732v-7.6h0.3v2.2C732.8,123.9,734,122.9,735.7,122.9z"/>
	<path class="st5" d="M737.9,121.3c0-0.2,0.1-0.3,0.3-0.3s0.3,0.1,0.3,0.3s-0.1,0.3-0.3,0.3S737.9,121.5,737.9,121.3z M738.1,130.8
		v-7.6h0.3v7.6H738.1z"/>
	<path class="st5" d="M748.8,127c0,2.2-1.4,4-3.7,4c-1.7,0-2.9-1-3.4-2.5v5.2h-0.3v-10.6h0.3v2.2c0.5-1.4,1.7-2.5,3.4-2.5
		C747.3,122.9,748.8,124.7,748.8,127z M748.5,127c0-1.8-1.1-3.8-3.4-3.8s-3.4,2-3.4,3.8s1.1,3.7,3.4,3.7S748.5,128.7,748.5,127z"/>
	<path class="st5" d="M754.1,130.5c0,0-0.6,0.5-1.6,0.5c-1.6,0-1.5-1.8-1.5-2.5v-5.1h-1.2v-0.3h1.2v-2.1h0.3v2.1h2.4v0.3h-2.4v5.2
		c0,1.4,0.3,2.1,1.2,2.1c0.8,0,1.3-0.4,1.4-0.4L754.1,130.5z"/>
</g>
<g>
	<path class="st6" d="M870.2,86.2v1h-23c0-17.7,21.7-13.9,21.7-25.7c0-4.7-4.3-8.2-10-8.2c-7.5,0-10.8,6.5-10.8,6.5l-0.9-0.5
		c0.1-0.1,3.5-7,11.7-7c6.4,0,11.1,3.9,11.1,9.3c0,12.5-20.8,8.9-21.7,24.7H870.2z"/>
	<path class="st6" d="M899.2,71.4v1h-9.8v9.8h-1v-9.8h-9.8v-1h9.8v-9.8h1v9.8H899.2z"/>
</g>
<g>
	<path class="st4" d="M853.9,96.2l-3.2,4.5v3.3h-0.3v-3.3l-3.2-4.5h0.3l3,4.2l3-4.2H853.9z"/>
	<path class="st4" d="M853.9,101.3c0,1.3,0.8,2.7,2.6,2.7c0.7,0,1.5-0.3,1.9-0.6l0.1,0.2c-0.5,0.4-1.3,0.7-2,0.7
		c-1.9,0-2.8-1.3-2.8-3s1-3,2.7-3c1.7,0,2.7,1.4,2.7,3v0.1H853.9z M858.9,101.1c0-1.3-0.8-2.7-2.4-2.7c-1.7,0-2.4,1.4-2.5,2.7H858.9
		z"/>
	<path class="st4" d="M864.8,104h-0.2c0-0.1-0.1-0.4-0.2-0.7c-0.3,0.3-0.9,0.9-2,0.9c-1.2,0-2.3-0.6-2.3-1.8c0-0.3,0.1-1.8,2.4-1.7
		c0.5,0,1,0.1,1.9,0.3v-1c0-1.1-1-1.6-1.8-1.6c-1,0-1.8,0.6-1.9,0.8l-0.2-0.1c0.2-0.3,1-0.9,2.1-0.9c1.1,0,2.1,0.6,2.1,1.8v3
		C864.7,103.5,864.8,104,864.8,104z M864.4,101.2c-2.2-0.7-4-0.3-4,1.2c0,1.1,1,1.6,2,1.6c1.1,0,1.7-0.6,1.9-0.9V101.2z"/>
	<path class="st4" d="M869.6,98.2v0.2c-1.7,0-2.5,1.4-2.5,2.8v2.8h-0.2v-5.6h0.2v1.6C867.4,98.9,868.3,98.2,869.6,98.2z"/>
	<path class="st4" d="M875.1,102.6c0,0.9-0.8,1.6-2.2,1.6c-1.2,0-2.1-0.7-2.2-0.9l0.2-0.1c0.1,0.1,0.9,0.8,2,0.8c0.9,0,2-0.4,2-1.3
		c0-1.9-4-0.8-4-2.9c0-0.9,0.8-1.5,2-1.5c1.2,0,1.9,0.7,2,0.9l-0.2,0.1c0-0.1-0.6-0.8-1.8-0.8c-1,0-1.7,0.6-1.7,1.3
		C871,101.5,875.1,100.5,875.1,102.6z"/>
</g>
<g>
	<path class="st5" d="M856.1,22.8c-0.1-0.1-0.2-0.7-0.2-1.4v-0.8c0-0.5-0.1-2.4-2.5-2.4h-4v4.6h-0.4V12.2h4.1c1.7,0,3.2,1,3.2,3.1
		c0,1.6-1,2.5-2.1,2.8c1.9,0.4,2,2,2,2.4v1c0,0.7,0.2,1.3,0.2,1.4H856.1z M856,15.2c0-1.8-1.3-2.7-2.8-2.7h-3.7v5.4h3.7
		C854.6,17.9,856,17.1,856,15.2z"/>
	<path class="st5" d="M858.5,19.1c0,1.8,1,3.6,3.5,3.6c1,0,2-0.3,2.5-0.8l0.2,0.2c-0.6,0.6-1.7,0.9-2.7,0.9c-2.6,0-3.8-1.8-3.8-4
		c0-2.2,1.4-4.1,3.7-4.1s3.6,1.8,3.6,4.1v0.1H858.5z M865.1,18.8c0-1.8-1.1-3.6-3.3-3.6c-2.3,0-3.3,1.9-3.4,3.6H865.1z"/>
	<path class="st5" d="M873.2,22.8h-0.3c-0.1-0.1-0.2-0.6-0.2-0.9c-0.4,0.5-1.2,1.2-2.6,1.2c-1.7,0-3.1-0.8-3.1-2.4
		c0-0.3,0.1-2.4,3.2-2.3c0.7,0,1.4,0.1,2.5,0.4v-1.3c0-1.5-1.3-2.1-2.5-2.1c-1.4,0-2.4,0.8-2.6,1.1l-0.3-0.2
		c0.3-0.3,1.3-1.2,2.9-1.2c1.5,0,2.8,0.8,2.8,2.4v4.1C873,22.1,873.2,22.8,873.2,22.8z M872.7,19c-3-0.9-5.4-0.4-5.4,1.6
		c0,1.5,1.4,2.1,2.8,2.1c1.5,0,2.3-0.8,2.6-1.2V19z"/>
	<path class="st5" d="M881.7,22.1c-0.6,0.6-1.6,0.9-2.6,0.9c-2.3,0-3.9-1.8-3.9-4c0-2.2,1.6-4.1,3.9-4.1c1,0,2,0.4,2.6,0.9l-0.2,0.2
		c-0.6-0.5-1.5-0.8-2.4-0.8c-2.4,0-3.6,2-3.6,3.8c0,1.8,1.2,3.7,3.6,3.7c1,0,1.9-0.4,2.4-0.9L881.7,22.1z"/>
	<path class="st5" d="M887.2,22.5c0,0-0.6,0.5-1.6,0.5c-1.6,0-1.5-1.8-1.5-2.5v-5.1h-1.2v-0.3h1.2v-2.1h0.3v2.1h2.4v0.3h-2.4v5.2
		c0,1.4,0.3,2.1,1.2,2.1c0.8,0,1.3-0.4,1.4-0.4L887.2,22.5z"/>
	<path class="st5" d="M856.9,31.7v10.6h-0.3l-7.1-10v10h-0.4V31.7h0.4l7.1,10v-10H856.9z"/>
	<path class="st5" d="M865.8,42.3h-0.3c-0.1-0.1-0.2-0.6-0.2-0.9c-0.4,0.5-1.2,1.2-2.6,1.2c-1.7,0-3.1-0.8-3.1-2.4
		c0-0.3,0.1-2.4,3.2-2.3c0.7,0,1.4,0.1,2.5,0.4v-1.3c0-1.5-1.3-2.1-2.5-2.1c-1.4,0-2.4,0.8-2.6,1.1l-0.3-0.2
		c0.3-0.3,1.3-1.2,2.9-1.2c1.5,0,2.8,0.8,2.8,2.4v4.1C865.5,41.6,865.8,42.3,865.8,42.3z M865.2,38.5c-3-0.9-5.4-0.4-5.4,1.6
		c0,1.5,1.4,2.1,2.8,2.1c1.5,0,2.3-0.8,2.6-1.2V38.5z"/>
	<path class="st5" d="M871.2,42c0,0-0.6,0.5-1.6,0.5c-1.6,0-1.5-1.8-1.5-2.5v-5.1h-1.2v-0.3h1.2v-2.1h0.3v2.1h2.4v0.3h-2.4v5.2
		c0,1.4,0.3,2.1,1.2,2.1c0.8,0,1.3-0.4,1.4-0.4L871.2,42z"/>
	<path class="st5" d="M872.7,32.8c0-0.2,0.1-0.3,0.3-0.3c0.2,0,0.3,0.1,0.3,0.3s-0.1,0.3-0.3,0.3C872.8,33.1,872.7,33,872.7,32.8z
		 M872.8,42.3v-7.6h0.3v7.6H872.8z"/>
	<path class="st5" d="M882.1,34.6l-3.5,7.6h-0.3l-3.5-7.6h0.3l3.4,7.3l3.3-7.3H882.1z"/>
	<path class="st5" d="M883.4,38.6c0,1.8,1,3.6,3.5,3.6c1,0,2-0.3,2.5-0.8l0.2,0.2c-0.6,0.6-1.7,0.9-2.7,0.9c-2.6,0-3.8-1.8-3.8-4
		c0-2.2,1.4-4.1,3.7-4.1c2.3,0,3.6,1.8,3.6,4.1v0.1H883.4z M890.1,38.3c0-1.8-1.1-3.6-3.3-3.6c-2.3,0-3.3,1.9-3.4,3.6H890.1z"/>
</g>
</svg>
